<?xml version="1.0" encoding="utf-8"?>
<!-- Svg Vector Icons : http://www.onlinewebfonts.com/icon -->
<!DOCTYPE svg PUBLIC "-//W3C//DTD SVG 1.1//EN" "http://www.w3.org/Graphics/SVG/1.1/DTD/svg11.dtd">
<svg version="1.1" xmlns="http://www.w3.org/2000/svg" xmlns:xlink="http://www.w3.org/1999/xlink" x="0px" y="0px" viewBox="0 0 256 256" enable-background="new 0 0 256 256" xml:space="preserve">
<metadata> Svg Vector Icons : http://www.onlinewebfonts.com/icon </metadata>
<g><g><path fill="#000000" d="M218.7,46.2l-33-32.6c-2.4-2.3-5.5-3.6-8.9-3.6l0,0H46.1c-7,0-12.6,5.7-12.6,12.6v210.8c0,7,5.7,12.6,12.6,12.6h163.8c7,0,12.6-5.7,12.6-12.6V55.2C222.5,51.8,221.1,48.5,218.7,46.2z M209.5,50.4h-27.9l0-27.5L209.5,50.4z M209.9,236.5H46.1c-1.7,0-3.1-1.4-3.1-3.1V22.6c0-1.7,1.4-3.1,3.1-3.1h126l0,35.7c0,2.6,2.1,4.7,4.7,4.7H213v173.5C213,235.1,211.6,236.5,209.9,236.5z"/><path fill="#000000" d="M178,192.9H78c-2.6,0-4.7,2.1-4.7,4.7c0,2.6,2.1,4.7,4.7,4.7h100c2.6,0,4.7-2.1,4.7-4.7C182.8,195.1,180.6,192.9,178,192.9z"/><path fill="#000000" d="M178,165.7H78c-2.6,0-4.7,2.1-4.7,4.7s2.1,4.7,4.7,4.7h100c2.6,0,4.7-2.1,4.7-4.7S180.6,165.7,178,165.7z"/><path fill="#000000" d="M121.7,145.5c6.9,0,11.4-2.4,15.1-5.9c0.9-0.7,1.3-1.7,1.3-3c0-2.3-1.8-4.2-4.1-4.2c-1.1,0-2,0.6-2.6,1c-2.6,2.2-5.5,3.7-9.3,3.7c-7.3,0-12.5-5.9-12.5-13.3v-0.1c0-7.2,5.1-13.2,12.1-13.2c3.8,0,6.5,1.5,8.9,3.5c0.6,0.5,1.7,0.9,2.8,0.9c2.5,0,4.4-1.9,4.4-4.3c0-1.6-0.9-2.8-1.5-3.3c-3.5-3.1-8-5.2-14.6-5.2c-12.5,0-21.7,9.9-21.7,21.8v0.1C100.2,135.8,109.3,145.5,121.7,145.5z"/><path fill="#000000" d="M179.9,102.4c-2.5,0-3.8,1.7-4.5,3.3l-10.9,27.7l-10.7-27.6c-0.8-2-2.1-3.5-4.7-3.5s-4.7,2.2-4.7,4.6c0,0.9,0.3,1.7,0.6,2.4l13.9,31.8c1.1,2.5,2.8,4.2,5.4,4.2h0.5c2.6,0,4.3-1.7,5.4-4.2l13.9-31.8c0.2-0.5,0.6-1.4,0.6-2.3C184.5,104.4,182.5,102.4,179.9,102.4z"/></g></g>
</svg>