<?xml version="1.0" encoding="utf-8"?>
<!-- Svg Vector Icons : http://www.onlinewebfonts.com/icon -->
<!DOCTYPE svg PUBLIC "-//W3C//DTD SVG 1.1//EN" "http://www.w3.org/Graphics/SVG/1.1/DTD/svg11.dtd">
<svg version="1.1" xmlns="http://www.w3.org/2000/svg" xmlns:xlink="http://www.w3.org/1999/xlink" x="0px" y="0px" viewBox="0 0 256 256" enable-background="new 0 0 256 256" xml:space="preserve">
<metadata> Svg Vector Icons : http://www.onlinewebfonts.com/icon </metadata>
<g><g><path fill="#000000" d="M241.1,82.8L136.5,46.8c-6.5-2.4-5.2-2.4-11.6,0L19.7,82.5c-6.5,2.3-6.5,6.2,0.1,8.5l25,8.5c-11.1,10.8-11.8,22-11.9,34.9c-4.3,1.6-7.3,5.8-7.3,10.7c0,4.5,2.6,8.4,6.3,10.3c-1.8,13.2-6.8,28.2-21.7,46c7.3,5.7,11.1,7.7,16.9,9.6c20.9-9,18.3-32.8,16.7-56.6c2.9-2.1,4.7-5.4,4.7-9.3c0-4.1-2.2-7.7-5.4-9.7c0.4-12.7,3.1-24.1,12.6-31.4c0.1-0.2,0.3-0.4,0.7-0.5l15.1,5.2l54.4,18.5c6.5,2.4,5.2,2.4,11.6,0l103.8-35.8C247.7,89,247.6,85.2,241.1,82.8L241.1,82.8L241.1,82.8z"/><path fill="#000000" d="M137.4,144.1c-6.5,2.3-5.1,2.3-11.6,0l-54.4-18.5L57.9,121v51.5l0,0l0,0v0.6l0,0c0.9,14.6,34.7,26.4,76.1,26.4c41.4,0,75.2-11.8,76.1-26.4l0,0v-54L137.4,144.1z"/></g></g>
</svg>